<?xml version="1.0" standalone="no"?>
<!DOCTYPE svg PUBLIC "-//W3C//DTD SVG 20010904//EN"
 "http://www.w3.org/TR/2001/REC-SVG-20010904/DTD/svg10.dtd">
<svg version="1.0" xmlns="http://www.w3.org/2000/svg"
 width="500.000000pt" height="500.000000pt" viewBox="0 0 500.000000 500.000000"
 preserveAspectRatio="xMidYMid meet">

<g transform="translate(0.000000,500.000000) scale(0.100000,-0.100000)"
fill="#000000" stroke="none">
<path d="M0 2500 l0 -2500 2500 0 2500 0 0 2500 0 2500 -2500 0 -2500 0 0
-2500z m4250 1024 c24 -23 25 -30 24 -137 0 -99 -4 -124 -33 -212 -19 -55 -47
-127 -63 -160 -76 -150 -255 -369 -356 -434 -133 -85 -165 11 -53 159 61 80
139 149 325 285 65 48 135 236 137 371 2 110 -26 127 -121 72 -70 -40 -144
-116 -210 -215 -47 -72 -191 -353 -289 -566 -40 -87 -62 -110 -84 -88 -15 15
-11 113 9 221 33 184 199 693 227 698 29 6 20 -36 -62 -295 -83 -262 -107
-350 -97 -360 13 -13 41 27 105 156 84 167 119 227 181 311 82 110 178 192
252 215 51 16 74 11 108 -21z m-3142 5 c2 -11 -15 -25 -53 -43 -97 -48 -247
-230 -331 -401 -64 -133 -88 -235 -82 -360 16 -318 203 -397 423 -178 196 195
351 615 280 758 -74 149 -273 87 -347 -108 -38 -99 -78 -71 -44 31 23 68 93
152 156 186 134 73 266 9 299 -145 29 -134 -60 -407 -206 -634 -120 -185 -293
-290 -424 -255 -63 17 -130 88 -158 171 -35 98 -40 260 -12 368 42 167 153
360 293 506 94 100 197 151 206 104z m649 -136 c10 -25 -20 -101 -108 -276
-54 -106 -79 -168 -79 -192 0 -44 17 -45 51 -2 14 18 42 41 62 52 30 16 38 17
51 6 36 -30 9 -98 -74 -186 -80 -86 -73 -107 29 -81 94 24 152 59 267 159 143
125 156 133 202 119 36 -11 36 -11 92 48 30 33 61 60 68 60 16 0 15 -44 -2
-78 -28 -54 -75 -202 -70 -217 13 -32 52 -15 136 59 66 58 88 84 103 122 23
62 44 94 61 94 25 0 23 -17 -8 -104 -40 -112 -30 -129 40 -64 91 85 127 72
143 -52 15 -122 30 -123 151 -14 46 41 88 72 93 71 29 -10 13 -43 -47 -99
-129 -123 -161 -137 -206 -91 -23 22 -31 42 -36 86 -5 40 -13 60 -24 64 -24
10 -108 -89 -171 -202 -53 -94 -74 -117 -98 -108 -15 5 -16 66 -4 128 8 43 5
65 -9 65 -5 0 -31 -13 -57 -30 -49 -31 -100 -39 -121 -18 -7 7 -12 26 -12 44
0 17 -7 37 -15 44 -12 10 -26 2 -81 -49 -56 -53 -71 -62 -97 -59 -24 2 -33 8
-35 25 -7 45 -26 46 -93 4 -77 -48 -166 -79 -260 -90 -38 -5 -76 -14 -84 -21
-8 -6 -26 -47 -40 -91 -22 -64 -30 -79 -47 -79 -20 0 -20 4 -13 68 18 160 24
200 40 256 9 33 13 70 10 87 -5 22 1 42 23 81 17 29 54 109 82 178 65 157 101
228 135 269 30 35 43 39 52 14z m2580 -729 c7 -18 -17 -38 -31 -24 -11 11 -1
40 14 40 6 0 13 -7 17 -16z m-2412 -1433 c0 -13 -6 -26 -12 -28 -7 -3 -13 2
-13 11 0 9 -7 16 -15 16 -12 0 -15 -15 -15 -79 0 -76 15 -117 27 -73 3 11 12
23 20 26 11 5 14 -2 11 -32 -3 -34 -6 -37 -36 -40 -54 -5 -62 9 -62 108 0 116
3 122 54 118 36 -3 41 -6 41 -27z m130 -86 l0 -110 -33 -3 c-55 -5 -62 8 -62
118 0 53 3 100 7 104 4 4 25 6 48 4 l40 -3 0 -110z m133 56 c2 -33 -1 -57 -8
-61 -9 -5 -6 -21 9 -55 25 -58 25 -55 2 -55 -13 0 -25 14 -37 43 l-19 42 -3
-42 c-3 -35 -7 -43 -23 -43 -18 0 -19 8 -19 116 l0 115 48 -3 47 -3 3 -54z
m122 44 c0 -9 -9 -15 -25 -15 -21 0 -25 -5 -25 -30 0 -27 2 -29 25 -20 21 8
25 7 25 -9 0 -10 -11 -23 -25 -29 -20 -9 -25 -19 -25 -47 0 -31 3 -35 25 -35
16 0 25 -6 25 -15 0 -11 -12 -15 -45 -15 l-45 0 0 108 c0 60 3 112 7 115 3 4
24 7 45 7 27 0 38 -4 38 -15z m190 0 c0 -10 -11 -15 -35 -15 -32 0 -35 -2 -35
-30 0 -35 1 -35 40 -15 l30 16 0 -74 c0 -43 -5 -78 -12 -85 -18 -18 -77 -15
-85 4 -8 22 13 42 29 26 21 -21 28 -13 28 28 l0 41 -30 -16 -30 -16 0 76 0 75
50 0 c38 0 50 -4 50 -15z m185 -100 l0 -110 -33 -3 c-54 -5 -62 9 -62 108 0
116 3 122 54 118 l41 -3 0 -110z m203 91 c2 -10 -2 -22 -10 -27 -19 -13 -28
-11 -28 6 0 8 -7 15 -15 15 -13 0 -15 -14 -13 -82 2 -54 7 -83 16 -86 6 -2 12
3 12 12 0 8 9 20 20 26 18 10 20 8 20 -18 0 -38 -20 -54 -62 -50 l-33 3 -3 99
c-1 55 0 106 3 113 8 23 89 13 93 -11z m126 8 c3 -9 6 -60 6 -115 0 -92 -1
-99 -20 -99 -17 0 -20 7 -20 50 0 40 -3 48 -15 44 -10 -4 -15 -20 -15 -50 0
-32 -4 -44 -15 -44 -12 0 -15 19 -15 115 l0 115 44 0 c31 0 46 -5 50 -16z
m194 -101 c2 -96 0 -113 -13 -113 -12 0 -15 17 -15 100 0 82 -3 100 -15 100
-12 0 -15 -18 -15 -100 0 -93 -1 -100 -20 -100 -19 0 -20 7 -20 100 0 82 -3
100 -15 100 -12 0 -15 -18 -15 -100 0 -82 -3 -100 -15 -100 -12 0 -15 19 -15
115 l0 114 78 -2 77 -2 3 -112z m130 56 c3 -54 2 -57 -28 -69 -27 -11 -30 -17
-30 -56 0 -37 -3 -44 -20 -44 -19 0 -20 7 -20 116 l0 115 48 -3 47 -3 3 -56z
m-778 -149 c0 -11 -7 -20 -15 -20 -8 0 -15 9 -15 20 0 11 7 20 15 20 8 0 15
-9 15 -20z"/>
<path d="M3889 2783 c-99 -101 -118 -130 -94 -140 27 -10 205 178 205 216 0
26 -30 6 -111 -76z"/>
<path d="M2071 2884 c-22 -27 -28 -64 -12 -64 13 0 61 59 61 76 0 23 -27 16
-49 -12z"/>
<path d="M2000 1145 c0 -65 3 -86 13 -82 8 2 12 28 12 82 0 54 -4 80 -12 83
-10 3 -13 -18 -13 -83z"/>
<path d="M2130 1195 c0 -25 4 -35 13 -32 6 2 12 16 12 32 0 16 -6 30 -12 33
-9 2 -13 -8 -13 -33z"/>
<path d="M2632 1148 c4 -106 22 -105 26 2 2 67 0 80 -13 80 -13 0 -15 -13 -13
-82z"/>
<path d="M2950 1194 c0 -45 24 -42 28 4 2 24 -1 32 -12 32 -12 0 -16 -10 -16
-36z"/>
<path d="M3280 1195 c0 -25 4 -35 13 -32 6 2 12 16 12 32 0 16 -6 30 -12 33
-9 2 -13 -8 -13 -33z"/>
</g>
</svg>
